PathFileType	4	(X/Y/Z)	C:/Users/opensim2020/Desktop/walking_exp_matlab/subject03_walking05_straight_04.trc																																																																																																																																					
DataRate	CameraRate	NumFrames	NumMarkers	Units	OrigDataRate	OrigDataStartFrame	OrigNumFrames																																																																																																																																	
100	100	4	45	mm	100	3002	294																																																																																																																																	
Frame#	Time	LFHD			RFHD			LBHD			RBHD			C7			T10			CLAV			STRN			RBAK			LSHO			LUPA			LELB			LFRM			LWRA			LWRB			LFIN			RSHO			RUPA			RELB			RFRM			RWRA			RWRB			RFIN			LASI			RASI			LPSI			RPSI			LTHI			LKNE			LTIB			LANK			LHEE			LTOE			RTHI			RKNE			RTIB			RANK			RHEE			RTOE			*39			*40			*41			*42			*43			*44		
		X1	Y1	Z1	X2	Y2	Z2	X3	Y3	Z3	X4	Y4	Z4	X5	Y5	Z5	X6	Y6	Z6	X7	Y7	Z7	X8	Y8	Z8	X9	Y9	Z9	X10	Y10	Z10	X11	Y11	Z11	X12	Y12	Z12	X13	Y13	Z13	X14	Y14	Z14	X15	Y15	Z15	X16	Y16	Z16	X17	Y17	Z17	X18	Y18	Z18	X19	Y19	Z19	X20	Y20	Z20	X21	Y21	Z21	X22	Y22	Z22	X23	Y23	Z23	X24	Y24	Z24	X25	Y25	Z25	X26	Y26	Z26	X27	Y27	Z27	X28	Y28	Z28	X29	Y29	Z29	X30	Y30	Z30	X31	Y31	Z31	X32	Y32	Z32	X33	Y33	Z33	X34	Y34	Z34	X35	Y35	Z35	X36	Y36	Z36	X37	Y37	Z37	X38	Y38	Z38	X39	Y39	Z39	X40	Y40	Z40	X41	Y41	Z41	X42	Y42	Z42	X43	Y43	Z43	X44	Y44	Z44	X45	Y45	Z45
																																																																																																																																								
148	1.47	-231.66595	1623.98425	-1511.30005	-250.78555	1632.89819	-1379.69177	-357.39404	1574.40283	-1521.8468	-371.25314	1583.41992	-1391.76196	-392.12524	1418.9209	-1461.70569	-409.5957	1103.24231	-1459.38477	-268.16623	1346.24622	-1446.61707	-217.61937	1184.11487	-1446.60229	-447.90744	1240.34363	-1368.90295	-298.22525	1379.77307	-1606.47778	-277.03946	1183.79028	-1677.0011	-252.96054	1063.04321	-1686.86108	-209.76949	940.03766	-1680.96875	-183.34056	824.95825	-1647.39697	-193.38914	829.05029	-1702.2323	-165.13438	751.0813	-1691.33643	-332.38184	1369.22412	-1292.25317	-321.55435	1145.56604	-1221.578	-295.85284	1035.38281	-1210.35889	-264.43823	902.16937	-1210.53406	-222.49922	812.17377	-1247.60718	-254.3974	802.48102	-1204.32092	-221.63254	735.74854	-1214.54211	-231.42126	949.08569	-1568.20544	-248.41771	945.71735	-1330.11938	-396.3024	969.14764	-1527.71973	-405.52213	969.09448	-1378.79272	-286.99731	644.55725	-1600.35461	-292.99347	468.21295	-1554.82361	-348.66089	280.02045	-1557.26416	-374.99036	72.00076	-1512.86035	-418.58429	37.61294	-1479.12756	-224.75816	35.02464	-1476.34937	-236.37968	652.12378	-1283.7312	-169.82983	484.84668	-1307.5791	-288.7659	336.49686	-1307.51355	-423.08517	169.31555	-1351.85901	-475.6626	164.39833	-1407.36218	-332.32852	61.24563	-1360.55701	NaN	NaN	NaN	NaN	NaN	NaN	NaN	NaN	NaN	NaN	NaN	NaN	NaN	NaN	NaN	NaN	NaN	NaN
149	1.48	-222.31258	1623.62402	-1511.00818	-241.43213	1632.48193	-1379.4209	-348.04468	1574.25269	-1521.33008	-361.95728	1583.21497	-1391.65454	-382.87915	1418.68286	-1461.41394	-400.84778	1103.06982	-1459.25671	-259.06143	1345.87146	-1446.70178	-208.6873	1183.57227	-1447.10828	-438.74097	1240.06958	-1368.79944	-289.42072	1379.83044	-1606.33728	-265.87845	1184.66064	-1677.48718	-239.11423	1064.52649	-1687.41711	-192.63464	942.74567	-1681.02783	-162.93698	828.48132	-1646.82019	-173.06163	832.29901	-1701.70862	-142.50133	755.14227	-1690.64612	-323.05154	1368.86865	-1292.2113	-313.90176	1145.06848	-1221.56091	-289.36282	1034.72766	-1210.21375	-259.08072	901.18622	-1210.45959	-217.89064	810.85828	-1247.3739	-250.0771	801.28064	-1204.44287	-217.95917	734.07501	-1214.43567	-223.56577	948.43964	-1568.81006	-238.80432	945.49445	-1330.33105	-388.20038	968.64221	-1527.10266	-396.48053	968.69659	-1378.19226	-281.40286	644.10492	-1600.24512	-289.10815	467.79202	-1554.93689	-346.64499	280.15805	-1557.14685	-374.87848	72.2342	-1512.73547	-418.55927	37.92639	-1478.91748	-224.74983	34.98759	-1476.422	-223.47925	653.12958	-1284.18188	-154.62993	486.82852	-1309.07739	-268.10486	333.54996	-1308.38855	-395.64612	160.79346	-1352.17847	-448.3111	153.13167	-1407.44336	-299.3186	58.20853	-1361.43176	NaN	NaN	NaN	NaN	NaN	NaN	NaN	NaN	NaN	NaN	NaN	NaN	NaN	NaN	NaN	NaN	NaN	NaN
150	1.49	-212.92107	1623.23779	-1510.75818	-232.04774	1631.9303	-1379.13123	-338.75229	1574.08862	-1521.15967	-352.67294	1582.91443	-1391.4231	-373.60989	1418.38782	-1461.25281	-392.02518	1102.8125	-1459.11353	-249.92274	1345.43225	-1446.76367	-199.88556	1183.11633	-1447.57605	-429.47873	1239.68823	-1368.57727	-280.56137	1379.72803	-1606.18115	-254.742	1185.35229	-1677.93274	-225.40491	1065.88171	-1688.0918	-175.72566	945.47278	-1681.04175	-143.13928	832.07129	-1646.22607	-152.96315	835.5719	-1701.1748	-120.25037	759.36163	-1689.86816	-313.57394	1368.35107	-1292.14905	-306.09271	1144.44324	-1221.51636	-282.76221	1033.85938	-1209.99121	-253.66045	900.10168	-1210.34363	-212.8997	809.47308	-1247.02185	-245.4691	800.14343	-1204.32935	-214.68799	732.4408	-1214.69458	-215.7384	947.74402	-1569.41089	-229.64696	945.20569	-1330.71362	-380.04126	968.05096	-1526.47876	-387.45996	968.16223	-1377.60901	-276.07898	643.60382	-1600.07288	-285.47195	467.36783	-1555.19507	-344.61331	280.24579	-1556.9845	-374.65137	72.45518	-1512.5481	-418.27463	37.98112	-1478.53711	-224.64275	35.09941	-1476.50098	-211.41089	654.01068	-1284.35425	-140.15506	488.6189	-1310.40271	-247.70105	330.43988	-1309.18286	-367.70871	152.14186	-1352.78955	-420.31665	141.72525	-1407.82471	-265.68414	55.27986	-1362.41345	NaN	NaN	NaN	NaN	NaN	NaN	NaN	NaN	NaN	NaN	NaN	NaN	NaN	NaN	NaN	NaN	NaN	NaN
151	1.5	-203.56519	1622.73804	-1510.44055	-222.71086	1631.38342	-1378.82471	-329.54224	1573.81763	-1521.23633	-343.36215	1582.448	-1391.21387	-364.33618	1418.01367	-1461.01587	-383.22675	1102.44263	-1458.96619	-240.7399	1344.83105	-1446.81299	-190.76086	1182.42004	-1447.91699	-420.26096	1239.28528	-1368.41992	-271.57922	1379.4613	-1606.03125	-243.5993	1185.948	-1678.44275	-211.94414	1067.13147	-1688.77307	-158.97923	948.0426	-1681.00623	-122.9807	836.04309	-1645.70007	-133.17941	838.87946	-1700.58618	-98.29958	763.67944	-1688.98621	-304.00073	1367.68689	-1292.04297	-298.18762	1143.71338	-1221.40479	-276.04443	1032.93396	-1209.76941	-248.2346	898.85632	-1210.17871	-208.3129	807.6803	-1246.96045	-241.12485	798.78949	-1204.26379	-211.12033	730.58527	-1214.79456	-207.89287	946.91162	-1569.91187	-220.16418	945.00708	-1330.83093	-371.87241	967.46204	-1525.8064	-378.42578	967.60028	-1377.03455	-270.8017	643.08459	-1599.87195	-281.10333	466.88007	-1554.87549	-342.37491	280.26422	-1556.72888	-374.44467	72.71729	-1512.33032	-418.27573	38.44738	-1478.28394	-224.48915	35.06073	-1476.52246	-199.28676	654.72693	-1284.60132	-126.36205	490.17474	-1311.55042	-227.51735	327.12134	-1309.9729	-338.82104	142.88167	-1353.48584	-391.04465	129.77586	-1408.27039	-231.67786	52.43811	-1363.47424	NaN	NaN	NaN	NaN	NaN	NaN	NaN	NaN	NaN	NaN	NaN	NaN	NaN	NaN	NaN	NaN	NaN	NaN
